<?xml version="1.0" encoding="utf-8"?>
<!-- Generator: Adobe Illustrator 18.1.0, SVG Export Plug-In . SVG Version: 6.00 Build 0)  -->
<!DOCTYPE svg PUBLIC "-//W3C//DTD SVG 1.1//EN" "http://www.w3.org/Graphics/SVG/1.1/DTD/svg11.dtd">
<svg version="1.1" id="Layer_1" xmlns="http://www.w3.org/2000/svg" xmlns:xlink="http://www.w3.org/1999/xlink" x="0px" y="0px"
	 viewBox="0 0 800 200" enable-background="new 0 0 800 200" xml:space="preserve">
<g>
	<g>
		<g>
			<path fill="#FFFFFF" d="M524.3,101.1c-2-2.4-4.1-4.1-6.4-5.2c-2.3-1.1-4.9-1.6-7.6-1.6c-3.1,0-5.9,0.5-8.2,1.6
				c-2.4,1.1-4.4,2.6-5.9,4.5c-1.6,1.9-2.7,4.1-3.5,6.6c-0.8,2.5-1.2,5.2-1.2,8.1c0,2.9,0.5,5.6,1.4,8.1c0.9,2.5,2.2,4.7,3.8,6.6
				c1.6,1.9,3.6,3.4,5.9,4.5c2.3,1.1,4.9,1.6,7.8,1.6c6.1,0,10.9-2.3,14.2-6.9l6.9,6.6c-2.7,3.1-5.9,5.4-9.6,6.8
				c-3.7,1.4-7.5,2.1-11.6,2.1c-4.3,0-8.2-0.7-11.8-2.1c-3.6-1.4-6.6-3.5-9.1-6.1c-2.5-2.6-4.5-5.7-5.9-9.3
				c-1.4-3.6-2.1-7.5-2.1-11.8c0-4.2,0.7-8.1,2.1-11.7c1.4-3.6,3.4-6.7,5.9-9.3c2.6-2.6,5.6-4.7,9.1-6.2c3.5-1.5,7.5-2.2,11.8-2.2
				c4.1,0,8.1,0.7,11.8,2.2c3.7,1.4,6.9,3.7,9.7,6.7L524.3,101.1z"/>
			<path fill="#FFFFFF" d="M542.1,52h9.3v42.9h0.2c0.6-1.1,1.5-2.2,2.6-3.3c1.1-1.1,2.4-2.1,4-2.9c1.5-0.9,3.3-1.6,5.2-2.1
				c1.9-0.6,3.9-0.8,6.1-0.8c3.7,0,6.8,0.6,9.5,1.7c2.7,1.1,4.9,2.7,6.6,4.7c1.8,2,3,4.4,3.9,7.2c0.8,2.8,1.3,5.9,1.3,9.3V143h-9.3
				v-33.6c0-4.7-1-8.4-3.1-11.1c-2.1-2.7-5.3-4.1-9.7-4.1c-3,0-5.6,0.5-7.8,1.6c-2.2,1-4,2.5-5.4,4.4c-1.4,1.9-2.4,4.2-3.1,6.8
				c-0.7,2.6-1,5.5-1,8.7V143h-9.3V52z"/>
			<path fill="#FFFFFF" d="M742.7,95h-16.5V123c0,1.8,0,3.5,0.1,5.1c0.1,1.6,0.4,2.9,1,4.1c0.6,1.2,1.4,2.1,2.5,2.7
				c1.1,0.7,2.7,1,4.8,1c1.4,0,2.8-0.2,4.2-0.5c1.4-0.3,2.8-0.8,4.1-1.4l0.4,8.5c-1.6,0.7-3.4,1.2-5.3,1.6c-2,0.3-3.8,0.5-5.6,0.5
				c-3.3,0-6-0.4-8-1.3c-2-0.9-3.5-2.1-4.7-3.7c-1.1-1.6-1.8-3.6-2.2-5.9c-0.4-2.3-0.5-5-0.5-7.8V95h-12.2v-7.9h12.2V71.3h9.3v15.9
				h16.5V95z"/>
			<path fill="#FFFFFF" d="M190.6,52.1h18.7v73.7H244V143h-53.4V52.1z"/>
			<path fill="#FFFFFF" d="M308.2,143h-17.3v-7.9h-0.2c-0.6,1.1-1.5,2.2-2.5,3.4c-1,1.1-2.2,2.1-3.7,3c-1.4,0.9-3.1,1.6-4.9,2.2
				c-1.8,0.6-3.8,0.8-6,0.8c-4.6,0-8.3-0.7-11.1-2.1c-2.8-1.4-5-3.3-6.6-5.8c-1.6-2.5-2.6-5.4-3.1-8.8c-0.5-3.4-0.8-7-0.8-10.9V84.7
				h18v28.6c0,1.7,0.1,3.4,0.2,5.2c0.1,1.8,0.5,3.5,1.1,5c0.6,1.5,1.5,2.8,2.8,3.7c1.2,1,3,1.4,5.3,1.4c2.3,0,4.2-0.4,5.6-1.3
				c1.4-0.8,2.5-2,3.3-3.4c0.8-1.4,1.3-3,1.5-4.7c0.2-1.8,0.4-3.6,0.4-5.5v-29h18V143z"/>
			<path fill="#FFFFFF" d="M358.4,103.5c-0.9-1.3-2.1-2.3-3.7-3.2c-1.6-0.8-3.3-1.3-5.2-1.3c-4.6,0-8.1,1.4-10.6,4.1
				c-2.5,2.7-3.8,6.3-3.8,10.7c0,4.4,1.3,8,3.8,10.7c2.5,2.7,6.1,4.1,10.6,4.1c2,0,3.7-0.4,5.2-1.3c1.4-0.9,2.7-1.9,3.7-3.1
				l11.9,12.5c-2.8,2.9-6.1,4.9-9.9,6.1c-3.8,1.2-7.4,1.7-10.9,1.7c-4.5,0-8.7-0.7-12.7-2.2c-4-1.4-7.4-3.5-10.3-6.2
				c-2.9-2.7-5.2-5.9-6.9-9.7c-1.7-3.8-2.5-8-2.5-12.6c0-4.6,0.8-8.8,2.5-12.6c1.7-3.8,4-7,6.9-9.7c2.9-2.7,6.4-4.7,10.3-6.2
				c4-1.4,8.2-2.2,12.7-2.2c3.4,0,7.1,0.6,10.9,1.7c3.8,1.2,7.1,3.2,9.9,6.1L358.4,103.5z"/>
			<path fill="#FFFFFF" d="M378.6,62.3c0-2.9,1-5.3,3.1-7.4c2-2,4.5-3.1,7.4-3.1c2.9,0,5.3,1,7.4,3.1c2,2,3.1,4.5,3.1,7.4
				c0,2.9-1,5.3-3.1,7.4c-2,2-4.5,3.1-7.4,3.1c-2.9,0-5.3-1-7.4-3.1C379.7,67.6,378.6,65.2,378.6,62.3z M380,84.7h18V143h-18V84.7z"
				/>
			<path fill="#FFFFFF" d="M471.2,143h-16.6v-7.7h-0.2c-0.7,1-1.7,2.1-2.8,3.2c-1.2,1.1-2.5,2.1-4.1,2.9c-1.6,0.9-3.3,1.6-5.2,2.2
				c-1.9,0.6-3.8,0.8-5.8,0.8c-4.3,0-8.2-0.7-11.8-2.2c-3.5-1.5-6.5-3.6-9.1-6.2c-2.5-2.7-4.5-5.9-5.8-9.5c-1.4-3.7-2-7.7-2-12.1
				c0-4.1,0.6-8,1.9-11.7c1.2-3.7,3-7,5.3-9.9c2.3-2.9,5.1-5.2,8.3-6.9c3.3-1.7,7-2.6,11.2-2.6c3.8,0,7.3,0.6,10.5,1.7
				c3.2,1.2,5.9,3.1,8,5.9h0.2v-39h18V143z M452.6,113.9c0-4.4-1.3-8-3.8-10.7c-2.5-2.7-6.1-4.1-10.6-4.1c-4.6,0-8.1,1.4-10.6,4.1
				c-2.5,2.7-3.8,6.3-3.8,10.7c0,4.4,1.3,8,3.8,10.7c2.5,2.7,6.1,4.1,10.6,4.1c4.6,0,8.1-1.4,10.6-4.1
				C451.4,121.8,452.6,118.3,452.6,113.9z"/>
			<path fill="#FFFFFF" d="M602.4,94c2.9-3,6.3-5.1,10.3-6.5c4-1.4,8-2.1,12.1-2.1c8.3,0,14.3,2,18,5.9c3.7,3.9,5.5,9.9,5.5,17.9
				v24.1c0,1.6,0.1,3.3,0.2,5c0.2,1.7,0.4,3.3,0.6,4.7h-9c-0.3-1.3-0.5-2.7-0.5-4.3c0-1.6-0.1-2.9-0.1-4.1h-0.2
				c-1.8,2.9-4.3,5.2-7.4,7.1c-3.1,1.8-6.8,2.8-11.1,2.8c-2.9,0-5.6-0.4-8.1-1.1c-2.5-0.7-4.7-1.8-6.6-3.2c-1.9-1.4-3.4-3.1-4.5-5.2
				c-1.1-2.1-1.7-4.5-1.7-7.2c0-4.6,1.2-8.3,3.6-10.9c2.4-2.6,5.4-4.6,8.9-5.9c3.6-1.3,7.4-2.1,11.5-2.4c4.1-0.3,7.9-0.5,11.3-0.5
				h3.6v-1.7c0-4.1-1.2-7.2-3.7-9.2c-2.4-2.1-5.9-3.1-10.3-3.1c-3,0-6,0.5-8.9,1.5c-2.9,1-5.5,2.5-7.7,4.6L602.4,94z M629.5,116
				c-6,0-10.8,0.8-14.3,2.5c-3.5,1.7-5.3,4.4-5.3,8.3c0,3.5,1.2,6,3.5,7.5c2.4,1.5,5.3,2.2,8.8,2.2c2.7,0,5.1-0.5,7.1-1.4
				c2-0.9,3.7-2.1,5.1-3.7c1.4-1.5,2.4-3.3,3.1-5.3c0.7-2,1.1-6,1.2-8.3V116H629.5z"/>
			<path fill="#FFFFFF" d="M663,86.8h9.5l0,6.9c0.6-1.4,2.6-5.6,10.3-7.5c4-1,6-0.9,7-0.9c0.7,0,2.3,0.1,3,0.2
				c0.6,0.1,1.3,0.2,1.9,0.5l-0.6,9.5c-1.6-0.5-3.3-0.7-5-0.7c-5.8,0-9.9,1.9-12.5,5.6c-2.6,3.7-3.9,8.8-3.9,15.3V143H663
				C663,143,663,88.6,663,86.8z"/>
		</g>
	</g>
	<g>
		<path fill="#FFFFFF" d="M103.7,119.9L103.7,119.9c-6.1-0.2-11.8-2.5-16.2-6.9c-4.3-4.3-6.2-10-6.2-15.7l0,0
			c-0.1-3.1-1.2-6.1-3.6-8.5c-4.8-4.8-12.5-4.8-17.3,0c-4.8,4.8-4.8,12.5,0,17.3c2.3,2.3,5.4,3.5,8.5,3.6l0,0
			c5.7,0,11.3,1.8,15.7,6.2c4.3,4.3,6.6,10.1,6.9,16c-0.1,3.2,1.1,6.4,3.6,8.9c4.8,4.8,12.5,4.8,17.3,0c4.8-4.8,4.8-12.5,0-17.3
			C110,121.1,106.9,119.9,103.7,119.9z"/>
		<path fill="#FFFFFF" d="M147,123.5c-4.8-4.8-12.5-4.8-17.3,0c-4.8,4.8-4.8,12.5,0,17.3c4.8,4.8,12.5,4.8,17.3,0
			C151.8,136,151.8,128.2,147,123.5z"/>
		<path fill="#FFFFFF" d="M103.7,75.1L103.7,75.1c-6.1,0.2-11.8,2.5-16.2,6.9c-4.3,4.3-6.2,10-6.2,15.7l0,0
			c-0.1,3.1-1.2,6.1-3.6,8.5c-4.8,4.8-12.5,4.8-17.3,0c-4.8-4.8-4.8-12.5,0-17.3c2.3-2.3,5.4-3.5,8.5-3.6l0,0
			c5.7,0,11.3-1.8,15.7-6.2c4.3-4.3,6.6-10.1,6.9-16c-0.1-3.2,1.1-6.4,3.6-8.9c4.8-4.8,12.5-4.8,17.3,0c4.8,4.8,4.8,12.5,0,17.3
			C110,73.9,106.9,75.1,103.7,75.1z"/>
		<path fill="#FFFFFF" d="M147,71.5c-4.8,4.8-12.5,4.8-17.3,0c-4.8-4.8-4.8-12.5,0-17.3c4.8-4.8,12.5-4.8,17.3,0
			C151.8,59,151.8,66.7,147,71.5z"/>
	</g>
</g>
</svg>
